<svg width="24" height="20" viewBox="0 0 24 20" fill="none" xmlns="http://www.w3.org/2000/svg">
<mask id="path-1-inside-1_106_12" fill="white">
<path d="M8.79173 16.9991H14.7083C14.4696 18.4172 13.236 19.4976 11.75 19.4976C10.264 19.4976 9.03037 18.4172 8.79173 16.9991ZM11.75 0C15.8921 0 19.25 3.35786 19.25 7.5V11.4985L20.6683 14.6586C20.7232 14.7809 20.7516 14.9135 20.7516 15.0476C20.7516 15.5723 20.3263 15.9976 19.8016 15.9976H3.70219C3.5684 15.9976 3.43612 15.9694 3.31402 15.9147C2.83514 15.7003 2.62073 15.1383 2.83511 14.6594L4.25 11.4989L4.25011 7.48708L4.25453 7.23716C4.3936 3.20644 7.70587 0 11.75 0ZM22.75 6.2461C23.1642 6.2461 23.5 6.58189 23.5 6.9961C23.5 7.3758 23.2178 7.68959 22.8518 7.73926L22.75 7.7461H20.75C20.3358 7.7461 20 7.41032 20 6.9961C20 6.61641 20.2822 6.30261 20.6482 6.25295L20.75 6.2461H22.75ZM2.75 6.2461C3.16421 6.2461 3.5 6.58189 3.5 6.9961C3.5 7.3758 3.21785 7.68959 2.85177 7.73926L2.75 7.7461H0.75C0.335786 7.7461 0 7.41032 0 6.9961C0 6.61641 0.282154 6.30261 0.648229 6.25295L0.75 6.2461H2.75ZM22.35 0.5461C22.5759 0.84735 22.541 1.26325 22.2838 1.5231L22.2 1.5961L20.2 3.0961C19.8686 3.34463 19.3985 3.27747 19.15 2.9461C18.9241 2.64486 18.959 2.22896 19.2162 1.96911L19.3 1.8961L21.3 0.3961C21.6314 0.14757 22.1015 0.21473 22.35 0.5461ZM2.2 0.3961L4.2 1.8961C4.53137 2.14463 4.59853 2.61473 4.35 2.9461C4.10147 3.27747 3.63137 3.34463 3.3 3.0961L1.3 1.5961C0.96863 1.34757 0.90147 0.87747 1.15 0.5461C1.39853 0.21473 1.86863 0.14757 2.2 0.3961Z"/>
</mask>
<path d="M8.79173 16.9991V14.9991H6.42705L6.81946 17.331L8.79173 16.9991ZM14.7083 16.9991L16.6806 17.3311L17.0731 14.9991H14.7083V16.9991ZM19.25 11.4985H17.25V11.9267L17.4253 12.3174L19.25 11.4985ZM20.6683 14.6586L18.8436 15.4775L18.8437 15.4776L20.6683 14.6586ZM3.31402 15.9147L4.1317 14.0895L4.13127 14.0893L3.31402 15.9147ZM2.83511 14.6594L1.00969 13.8422L1.00967 13.8422L2.83511 14.6594ZM4.25 11.4989L6.07542 12.3161L6.24999 11.9262L6.25 11.4989L4.25 11.4989ZM4.25011 7.48708L2.25042 7.45172L2.25011 7.46937L2.25011 7.48702L4.25011 7.48708ZM4.25453 7.23716L2.25572 7.1682L2.25514 7.18499L2.25484 7.2018L4.25453 7.23716ZM22.8518 7.73926L22.9859 9.73476L23.0535 9.73021L23.1208 9.72109L22.8518 7.73926ZM22.75 7.7461V9.7461H22.8171L22.8841 9.7416L22.75 7.7461ZM20.6482 6.25295L20.5139 4.25746L20.4464 4.26201L20.3793 4.27111L20.6482 6.25295ZM20.75 6.2461V4.2461H20.6828L20.6157 4.25061L20.75 6.2461ZM2.85177 7.73926L2.98588 9.73476L3.05351 9.73021L3.12067 9.7211L2.85177 7.73926ZM2.75 7.7461V9.7461H2.81713L2.88411 9.7416L2.75 7.7461ZM0.648229 6.25295L0.513912 4.25747L0.446416 4.26201L0.379381 4.2711L0.648229 6.25295ZM0.75 6.2461V4.2461H0.682766L0.615683 4.25061L0.75 6.2461ZM22.35 0.5461L23.9501 -0.653773L23.9501 -0.653815L22.35 0.5461ZM22.2838 1.5231L23.5975 3.03114L23.6532 2.98259L23.7052 2.93005L22.2838 1.5231ZM22.2 1.5961L23.4 3.1961L23.4585 3.1522L23.5137 3.10414L22.2 1.5961ZM20.2 3.0961L21.3999 4.69615L21.4 4.6961L20.2 3.0961ZM19.15 2.9461L17.5499 4.146L17.5499 4.14601L19.15 2.9461ZM19.2162 1.96911L17.9024 0.461156L17.8467 0.509672L17.7948 0.562163L19.2162 1.96911ZM19.3 1.8961L18.1 0.2961L18.0414 0.340039L17.9862 0.388146L19.3 1.8961ZM21.3 0.3961L20.1001 -1.20395L20.1 -1.2039L21.3 0.3961ZM2.2 0.3961L0.999992 1.99609L1 1.9961L2.2 0.3961ZM4.2 1.8961L5.40001 0.296106L5.4 0.2961L4.2 1.8961ZM3.3 3.0961L4.50001 1.49611L4.5 1.4961L3.3 3.0961ZM1.3 1.5961L0.0999922 3.19609L0.1 3.1961L1.3 1.5961ZM8.79173 18.9991H14.7083V14.9991H8.79173V18.9991ZM12.736 16.6671C12.6567 17.1384 12.2433 17.4976 11.75 17.4976V21.4976C14.2287 21.4976 16.2825 19.696 16.6806 17.3311L12.736 16.6671ZM11.75 17.4976C11.2566 17.4976 10.8433 17.1384 10.764 16.6672L6.81946 17.331C7.21745 19.696 9.27136 21.4976 11.75 21.4976V17.4976ZM11.75 2C14.7875 2 17.25 4.46244 17.25 7.5H21.25C21.25 2.25328 16.9967 -2 11.75 -2V2ZM17.25 7.5V11.4985H21.25V7.5H17.25ZM17.4253 12.3174L18.8436 15.4775L22.493 13.8397L21.0747 10.6796L17.4253 12.3174ZM18.8437 15.4776C18.783 15.3424 18.7516 15.1958 18.7516 15.0476H22.7516C22.7516 14.6312 22.6634 14.2194 22.4929 13.8395L18.8437 15.4776ZM18.7516 15.0476C18.7516 14.4677 19.2217 13.9976 19.8016 13.9976V17.9976C21.4309 17.9976 22.7516 16.6769 22.7516 15.0476H18.7516ZM19.8016 13.9976H3.70219V17.9976H19.8016V13.9976ZM3.70219 13.9976C3.84946 13.9976 3.9959 14.0286 4.1317 14.0895L2.49634 17.7399C2.87634 17.9101 3.28734 17.9976 3.70219 17.9976V13.9976ZM4.13127 14.0893C4.66053 14.3262 4.89745 14.9473 4.66055 15.4766L1.00967 13.8422C0.344008 15.3292 1.00975 17.0743 2.49677 17.7401L4.13127 14.0893ZM4.66053 15.4766L6.07542 12.3161L2.42458 10.6817L1.00969 13.8422L4.66053 15.4766ZM6.25 11.4989L6.25011 7.48713L2.25011 7.48702L2.25 11.4988L6.25 11.4989ZM6.2498 7.52244L6.25422 7.27252L2.25484 7.2018L2.25042 7.45172L6.2498 7.52244ZM6.25334 7.30612C6.35526 4.35208 8.78401 2 11.75 2V-2C6.62773 -2 2.43194 2.0608 2.25572 7.1682L6.25334 7.30612ZM22.75 8.2461C22.0596 8.2461 21.5 7.68648 21.5 6.9961H25.5C25.5 5.4773 24.2688 4.2461 22.75 4.2461V8.2461ZM21.5 6.9961C21.5 6.36157 21.9708 5.84048 22.5828 5.75743L23.1208 9.72109C24.4648 9.5387 25.5 8.39003 25.5 6.9961H21.5ZM22.7177 5.74376L22.6159 5.7506L22.8841 9.7416L22.9859 9.73476L22.7177 5.74376ZM22.75 5.7461H20.75V9.7461H22.75V5.7461ZM20.75 5.7461C21.4403 5.7461 22 6.30572 22 6.9961H18C18 8.51492 19.2313 9.7461 20.75 9.7461V5.7461ZM22 6.9961C22 7.63062 21.5292 8.15174 20.9171 8.23479L20.3793 4.27111C19.0352 4.45348 18 5.6022 18 6.9961H22ZM20.7825 8.24844L20.8843 8.24159L20.6157 4.25061L20.5139 4.25746L20.7825 8.24844ZM20.75 8.2461H22.75V4.2461H20.75V8.2461ZM2.75 8.2461C2.05964 8.2461 1.5 7.68646 1.5 6.9961H5.5C5.5 5.47732 4.26878 4.2461 2.75 4.2461V8.2461ZM1.5 6.9961C1.5 6.36163 1.97084 5.84046 2.58287 5.75742L3.12067 9.7211C4.46486 9.53872 5.5 8.38997 5.5 6.9961H1.5ZM2.71766 5.74376L2.61589 5.7506L2.88411 9.7416L2.98588 9.73476L2.71766 5.74376ZM2.75 5.7461H0.75V9.7461H2.75V5.7461ZM0.75 5.7461C1.44035 5.7461 2 6.30574 2 6.9961H-2C-2 8.5149 -0.768773 9.7461 0.75 9.7461V5.7461ZM2 6.9961C2 7.63056 1.52917 8.15176 0.917077 8.2348L0.379381 4.2711C-0.964866 4.45346 -2 5.60226 -2 6.9961H2ZM0.782546 8.24843L0.884317 8.24158L0.615683 4.25061L0.513912 4.25747L0.782546 8.24843ZM0.75 8.2461H2.75V4.2461H0.75V8.2461ZM20.7499 1.74597C20.3726 1.24277 20.4322 0.550765 20.8624 0.116153L23.7052 2.93005C24.6498 1.97573 24.7792 0.451933 23.9501 -0.653773L20.7499 1.74597ZM20.9701 0.0150563L20.8863 0.0880562L23.5137 3.10414L23.5975 3.03114L20.9701 0.0150563ZM21 -0.00390015L19 1.4961L21.4 4.6961L23.4 3.1961L21 -0.00390015ZM19.0001 1.49605C19.5522 1.08197 20.3358 1.19372 20.7501 1.74618L17.5499 4.14601C18.4612 5.36122 20.185 5.60729 21.3999 4.69615L19.0001 1.49605ZM20.7501 1.7462C21.1275 2.24944 21.0678 2.94146 20.6376 3.37606L17.7948 0.562163C16.8502 1.51646 16.7207 3.04028 17.5499 4.146L20.7501 1.7462ZM20.53 3.47706L20.6138 3.40405L17.9862 0.388146L17.9024 0.461156L20.53 3.47706ZM20.5 3.4961L22.5 1.9961L20.1 -1.2039L18.1 0.2961L20.5 3.4961ZM22.4999 1.99615C21.9478 2.41023 21.1642 2.29848 20.7499 1.74601L23.9501 -0.653815C23.0388 -1.86902 21.315 -2.11509 20.1001 -1.20395L22.4999 1.99615ZM1 1.9961L3 3.4961L5.4 0.2961L3.4 -1.2039L1 1.9961ZM2.99999 3.49609C2.44773 3.08189 2.33577 2.2984 2.75001 1.74609L5.94999 4.14611C6.86129 2.93106 6.61501 1.20737 5.40001 0.296106L2.99999 3.49609ZM2.75001 1.74609C3.16421 1.19383 3.9477 1.08187 4.50001 1.49611L2.09999 4.69609C3.31504 5.60739 5.03873 5.36111 5.94999 4.14611L2.75001 1.74609ZM4.5 1.4961L2.5 -0.00390015L0.1 3.1961L2.1 4.6961L4.5 1.4961ZM2.50001 -0.00389434C3.05227 0.410307 3.16423 1.19381 2.74999 1.74611L-0.449994 -0.653908C-1.36129 0.561135 -1.11501 2.28483 0.0999922 3.19609L2.50001 -0.00389434ZM2.74999 1.74611C2.33579 2.29837 1.55229 2.41032 0.999992 1.99609L3.40001 -1.20389C2.18497 -2.11518 0.461267 -1.86891 -0.449994 -0.653908L2.74999 1.74611Z" fill="black" mask="url(#path-1-inside-1_106_12)"/>
</svg>
