<svg width="18" height="18" viewBox="0 0 18 18" fill="none" xmlns="http://www.w3.org/2000/svg">
<path d="M8.5013 11.25C8.5013 10.2835 7.7178 9.5 6.75126 9.5H4.75126C3.78477 9.5 3.00126 10.2835 3.00126 11.25V13.25C3.00126 14.2165 3.78477 15 4.75126 15H6.75126C7.7178 15 8.5013 14.2165 8.5013 13.25V11.25ZM14.9987 11.25C14.9987 10.2835 14.2152 9.5 13.2487 9.5H11.2487C10.2822 9.5 9.4987 10.2835 9.4987 11.25V13.25C9.4987 14.2165 10.2822 15 11.2487 15H13.2487C14.2152 15 14.9987 14.2165 14.9987 13.25V11.25ZM8.5 4.75C8.5 3.7835 7.7165 3 6.75 3H4.75C3.7835 3 3 3.7835 3 4.75V6.75C3 7.7165 3.7835 8.5 4.75 8.5H6.75C7.7165 8.5 8.5 7.7165 8.5 6.75V4.75ZM14.9975 4.75C14.9975 3.7835 14.214 3 13.2475 3H11.2475C10.281 3 9.4975 3.7835 9.4975 4.75V6.75C9.4975 7.7165 10.281 8.5 11.2475 8.5H13.2475C14.214 8.5 14.9975 7.7165 14.9975 6.75V4.75ZM3.25 0C1.45507 0 0 1.45507 0 3.25V14.75C0 16.5449 1.45507 18 3.25 18H14.75C16.5449 18 18 16.5449 18 14.75V3.25C18 1.45507 16.5449 0 14.75 0H3.25ZM1.5 3.25C1.5 2.2835 2.2835 1.5 3.25 1.5H14.75C15.7165 1.5 16.5 2.2835 16.5 3.25V14.75C16.5 15.7165 15.7165 16.5 14.75 16.5H3.25C2.2835 16.5 1.5 15.7165 1.5 14.75V3.25Z" fill="white"/>
</svg>
