<svg width="18" height="18" viewBox="0 0 18 18" fill="none" xmlns="http://www.w3.org/2000/svg">
<path d="M7.25 1.5H10.75C11.1642 1.5 11.5 1.83579 11.5 2.25V4H6.5V2.25C6.5 1.83579 6.83579 1.5 7.25 1.5ZM5 2.25V4H3.25C1.45507 4 0 5.45507 0 7.25V14.75C0 16.5449 1.45507 18 3.25 18H14.75C16.5449 18 18 16.5449 18 14.75V7.25C18 5.45507 16.5449 4 14.75 4H13V2.25C13 1.00736 11.9926 0 10.75 0H7.25C6.00736 0 5 1.00736 5 2.25ZM8.5 8.75C8.5 8.3358 8.8358 8 9.25 8C9.6642 8 10 8.3358 10 8.75V10.5H11.75C12.1642 10.5 12.5 10.8358 12.5 11.25C12.5 11.6642 12.1642 12 11.75 12H10V13.75C10 14.1642 9.6642 14.5 9.25 14.5C8.8358 14.5 8.5 14.1642 8.5 13.75V12H6.75C6.33579 12 6 11.6642 6 11.25C6 10.8358 6.33579 10.5 6.75 10.5H8.5V8.75Z" fill="#212121"/>
</svg>
