<svg width="20" height="20" viewBox="0 0 20 20" fill="none" xmlns="http://www.w3.org/2000/svg">
<path d="M15.4923 1.33034L18.671 4.50911C19.5497 5.38779 19.5497 6.81241 18.671 7.69109L16.0866 10.275C17.1696 10.4375 18 11.3718 18 12.5V17.75C18 18.9926 16.9926 20 15.75 20H2.25C1.00736 20 0 18.9926 0 17.75V4.25001C0 3.00736 1.00736 2.00001 2.25 2.00001H7.5C8.6289 2.00001 9.5637 2.83146 9.7253 3.91541L12.3103 1.33034C13.189 0.451663 14.6136 0.451663 15.4923 1.33034ZM1.5 17.75C1.5 18.1642 1.83579 18.5 2.25 18.5L8.249 18.4993L8.25 11.75L1.5 11.7493V17.75ZM9.749 18.4993L15.75 18.5C16.1642 18.5 16.5 18.1642 16.5 17.75V12.5C16.5 12.0858 16.1642 11.75 15.75 11.75L9.749 11.7493V18.4993ZM7.5 3.50001H2.25C1.83579 3.50001 1.5 3.83579 1.5 4.25001V10.2493H8.25V4.25001C8.25 3.83579 7.9142 3.50001 7.5 3.50001ZM9.75 8.30933V10.25L11.69 10.2493L9.75 8.30933Z" fill="#212121"/>
</svg>
