<svg width="20" height="20" viewBox="0 0 20 20" fill="none" xmlns="http://www.w3.org/2000/svg">
<path d="M16.4749 3.63733L16.4749 3.63734L15.0755 4.25208C15.0753 4.25215 15.0752 4.25222 15.075 4.2523C14.8362 4.35784 14.5797 4.41199 14.3198 4.41158M16.4749 3.63733L14.3206 3.91158M16.4749 3.63733C16.572 3.59467 16.6855 3.61797 16.7579 3.6953L16.7579 3.69536M16.4749 3.63733L16.7579 3.69536M14.3198 4.41158L14.3206 3.91158M14.3198 4.41158C14.3199 4.41158 14.32 4.41158 14.3201 4.41158L14.3206 3.91158M14.3198 4.41158C13.3598 4.41044 12.5542 3.688 12.4491 2.73398L12.4491 2.7342L12.946 2.67881C13.0231 3.37986 13.615 3.91084 14.3206 3.91158M7.91934 0.991016C8.6007 0.839489 9.29624 0.758656 10.0122 0.750035C10.7096 0.758471 11.4042 0.839238 12.0849 0.99105C12.1891 1.0143 12.267 1.10121 12.2789 1.20736L12.449 2.73347L2.48373 8.48434L1.24152 7.57015L1.24152 7.57015C1.15573 7.50701 1.11936 7.39645 1.15092 7.29471C1.56727 5.9525 2.2826 4.72219 3.24311 3.69636L3.24312 3.69635C3.3156 3.61894 3.42905 3.59568 3.52614 3.63833L3.52615 3.63834L4.92653 4.2535L4.92668 4.25357C5.47634 4.4948 6.10771 4.45809 6.62732 4.15481C7.14431 3.85464 7.48857 3.32718 7.55507 2.73327L7.55509 2.73303L7.72516 1.20735C7.737 1.10115 7.81503 1.01422 7.91934 0.991016ZM7.91934 0.991016L7.81082 0.503035L7.91934 0.991016ZM16.7579 3.69536C17.7184 4.72118 18.4337 5.95148 18.8501 7.2937L16.7579 3.69536ZM16.2775 16.8206C16.5688 16.9483 16.9089 16.8783 17.1261 16.6461C18.1377 15.5649 18.8911 14.2685 19.3297 12.8543L18.8521 12.7062M16.2775 16.8206L17.5197 11.5158L18.7616 12.4308L18.7616 12.4309C18.8473 12.494 18.8837 12.6045 18.8521 12.7062M16.2775 16.8206L14.8712 16.2045L16.2775 16.8206ZM18.8521 12.7062C18.4359 14.0482 17.721 15.2785 16.761 16.3045L16.761 16.3045C16.6886 16.3819 16.5753 16.4052 16.4782 16.3627L16.4781 16.3626L15.0718 15.7465L15.0717 15.7464C14.5236 15.5066 13.8943 15.5417 13.3763 15.8411L18.8521 12.7062ZM12.0883 19.0051L12.0883 19.0051C12.191 18.9807 12.2673 18.8944 12.2789 18.7894L12.0883 19.0051ZM12.0883 19.0051C10.716 19.3316 9.28614 19.3316 7.91375 19.0051L7.79803 19.4915M12.0883 19.0051L7.79803 19.4915M7.79803 19.4915L7.91375 19.0051C7.81109 18.9807 7.73477 18.8943 7.72314 18.7894L7.55432 17.265L7.55415 17.2635M7.79803 19.4915L7.55415 17.2635M7.55415 17.2635C7.48662 16.6701 7.14149 16.144 6.62412 15.8458C6.10693 15.5477 5.47871 15.5125 4.93211 15.7512L4.93157 15.7514M7.55415 17.2635L4.93157 15.7514M4.93157 15.7514L3.52494 16.3676L3.52485 16.3677M4.93157 15.7514L3.52485 16.3677M3.52485 16.3677C3.42775 16.4102 3.31442 16.3869 3.24204 16.3095L3.24198 16.3094M3.52485 16.3677L3.24198 16.3094M3.24198 16.3094C2.28149 15.2822 1.5665 14.0505 1.15086 12.707L1.15086 12.707M3.24198 16.3094L1.15086 12.707M1.15086 12.707C1.11941 12.6054 1.15577 12.4949 1.24139 12.4319L1.24142 12.4318M1.15086 12.707L1.24142 12.4318M1.24142 12.4318L2.48423 11.5162M1.24142 12.4318L2.48423 11.5162M18.7597 7.56905C18.7597 7.56904 18.7597 7.56903 18.7597 7.56902L18.7597 7.56905ZM18.7597 7.56905L17.5189 8.48364L18.7597 7.56905ZM16.7516 9.9995C16.7516 9.4012 17.0361 8.83859 17.5182 8.48412L16.7516 9.9995ZM16.7516 9.9995C16.7516 10.598 17.0364 11.1605 17.5191 11.5154L16.7516 9.9995ZM2.48423 11.5162L2.48475 11.5159C2.96679 11.1614 3.25147 10.5988 3.25147 10.0005C3.25147 9.40193 2.96665 8.83927 2.48407 8.4846L2.48423 11.5162ZM12.448 17.2627L12.2789 18.7893L13.3763 15.8411C12.8584 16.1404 12.5138 16.6682 12.448 17.2627C12.448 17.2627 12.448 17.2627 12.448 17.2627ZM0.67334 12.8548L0.673305 12.8548L0.67334 12.8548ZM9.9997 6.49995C8.06665 6.49995 6.4997 8.06697 6.4997 10C6.4997 11.9329 8.06665 13.5 9.9997 13.5C11.9326 13.5 13.4997 11.9329 13.4997 10C13.4997 8.06696 11.9326 6.49995 9.9997 6.49995Z" stroke="black"/>
</svg>
