<svg width="23" height="16" viewBox="0 0 23 16" fill="none" xmlns="http://www.w3.org/2000/svg">
<rect x="0.5" y="0.5" width="22" height="15" rx="2" fill="white" stroke="#D9D9D9"/>
<path fill-rule="evenodd" clip-rule="evenodd" d="M5.48463 5.9553C5.79352 5.98174 6.1024 5.7967 6.29545 5.5621C6.48529 5.3209 6.61077 4.99708 6.5786 4.66666C6.3051 4.67988 5.96726 4.8517 5.77421 5.09291C5.59725 5.30107 5.44602 5.6381 5.48463 5.9553ZM9.15908 10.2111V5.05986H11.0413C12.013 5.05986 12.6919 5.74714 12.6919 6.75161C12.6919 7.75609 12.0002 8.44997 11.0156 8.44997H9.93772V10.2111H9.15908ZM6.57536 6.0181C6.30324 6.00201 6.05494 6.10214 5.85439 6.18301C5.72532 6.23506 5.61603 6.27913 5.53288 6.27913C5.43957 6.27913 5.32577 6.2327 5.19799 6.18057C5.03056 6.11226 4.83914 6.03417 4.6384 6.03792C4.1783 6.04453 3.75036 6.31217 3.51548 6.73841C3.03285 7.59089 3.39 8.8531 3.85654 9.54698C4.08499 9.89062 4.35848 10.2673 4.71884 10.2541C4.87738 10.2479 4.99142 10.1982 5.10945 10.1468C5.24533 10.0876 5.38648 10.0261 5.60688 10.0261C5.81965 10.0261 5.95463 10.086 6.0842 10.1435C6.2074 10.1982 6.32572 10.2507 6.50136 10.2475C6.8746 10.2409 7.10948 9.90383 7.33792 9.5602C7.58445 9.19138 7.69279 8.83143 7.70923 8.77681L7.71116 8.77049C7.71076 8.77009 7.70774 8.76867 7.70241 8.76616L7.70235 8.76613L7.70234 8.76613C7.61993 8.72738 6.99003 8.43125 6.98399 7.63715C6.97793 6.97062 7.48361 6.63292 7.56321 6.57976L7.56322 6.57975L7.56323 6.57975C7.56807 6.57652 7.57133 6.57434 7.5728 6.5732C7.25105 6.08418 6.74911 6.03131 6.57536 6.0181ZM14.1141 10.2507C14.6032 10.2507 15.0569 9.99632 15.2628 9.59321H15.2789V10.2111H15.9996V7.64703C15.9996 6.90359 15.4204 6.42448 14.5292 6.42448C13.7023 6.42448 13.0909 6.9102 13.0684 7.57765H13.7698C13.8278 7.26044 14.1141 7.05228 14.5067 7.05228C14.9829 7.05228 15.2499 7.28027 15.2499 7.6999V7.98406L14.2782 8.04354C13.3741 8.09971 12.885 8.47969 12.885 9.14053C12.885 9.80798 13.3902 10.2507 14.1141 10.2507ZM14.3232 9.63947C13.9082 9.63947 13.6443 9.43461 13.6443 9.12072C13.6443 8.79691 13.8985 8.60857 14.3844 8.57883L15.2499 8.52266V8.81343C15.2499 9.29584 14.8509 9.63947 14.3232 9.63947ZM18.3902 10.4127C18.0781 11.3147 17.721 11.6121 16.9616 11.6121C16.9037 11.6121 16.7107 11.6055 16.6656 11.5923V10.9744C16.7139 10.981 16.8329 10.9876 16.8941 10.9876C17.2383 10.9876 17.4314 10.8389 17.5504 10.4523L17.6212 10.2243L16.302 6.47406H17.1161L18.0331 9.51723H18.0492L18.9662 6.47406H19.7577L18.3902 10.4127ZM9.93765 5.73393H10.8353C11.511 5.73393 11.8971 6.104 11.8971 6.75493C11.8971 7.40585 11.511 7.77923 10.8321 7.77923H9.93765V5.73393Z" fill="black"/>
</svg>
