<svg width="23" height="16" viewBox="0 0 23 16" fill="none" xmlns="http://www.w3.org/2000/svg">
<rect x="0.5" y="0.5" width="22" height="15" rx="2" fill="white" stroke="#D9D9D9"/>
<path fill-rule="evenodd" clip-rule="evenodd" d="M15.0863 5.22012C14.7145 5.22012 14.4124 5.52492 14.4124 5.90067C14.4124 6.27664 14.7145 6.58078 15.0863 6.58078C15.4589 6.58078 15.7607 6.27664 15.7607 5.90067C15.7607 5.52492 15.4589 5.22012 15.0863 5.22012ZM5.36493 7.50023C5.19213 7.48896 4.79178 7.46266 4.79178 7.09906C4.79178 6.66032 5.36778 6.66032 5.58394 6.66032C5.96414 6.66032 6.45604 6.77348 6.80777 6.8798C6.80777 6.8798 7.00357 6.94964 7.17023 7.02082L7.18578 7.02524V5.82349L7.16498 5.81708C6.74973 5.67054 6.26769 5.52974 5.37347 5.52974C3.83186 5.52974 3.28564 6.43575 3.28564 7.21267C3.28564 7.66004 3.47575 8.71391 5.24075 8.83526L5.24239 8.83536C5.39364 8.84472 5.78806 8.86911 5.78806 9.2435C5.78806 9.55383 5.46283 9.7364 4.91596 9.7364C4.31675 9.7364 3.73505 9.58257 3.38201 9.43602V10.6734C3.9107 10.8137 4.50685 10.8831 5.20549 10.8831C6.71228 10.8831 7.38771 10.0257 7.38771 9.17565C7.38771 8.21217 6.63234 7.58599 5.36493 7.50023ZM9.91465 6.96612L9.9216 6.94788H11.5357C11.4897 7.09619 11.2017 7.99114 10.5451 8.8315C10.5451 8.8315 11.2764 10.1248 11.4435 10.8263H9.7534C9.7534 10.8263 9.55147 9.89488 9.1428 9.276V10.8263H7.73149V5.81156L9.1428 5.52974V8.29661C9.64287 7.68619 9.86569 7.09584 9.91465 6.96612ZM18.3465 10.8263V5.77663L19.7142 5.52974V10.8263H18.3465ZM13.6316 6.89552C12.3682 6.93664 11.7262 7.50911 11.7262 8.64697V10.8263H13.1051V9.04881C13.1051 8.36781 13.1936 8.07583 13.9945 8.04798V6.91564C13.8598 6.88668 13.6316 6.89552 13.6316 6.89552ZM14.403 10.8264V6.95235H15.7705V10.8264H14.403ZM16.35 5.77663L17.7169 5.52974V10.8263H16.35V5.77663Z" fill="#862165"/>
</svg>
